<svg xmlns="http://www.w3.org/2000/svg" viewBox="0 0 1200 900"><defs><linearGradient id="g" x1="0" x2="1" y1="0" y2="1"><stop stop-color="#fff0ce"/><stop offset=".5" stop-color="#d99a5b"/><stop offset="1" stop-color="#3a1e10"/></linearGradient><filter id="grain"><feTurbulence baseFrequency=".7" numOctaves="3"/><feColorMatrix type="saturate" values="0"/><feComponentTransfer><feFuncA type="table" tableValues="0 .18"/></feComponentTransfer></filter></defs><rect width="1200" height="900" fill="url(#g)"/><circle cx="930" cy="170" r="260" fill="#ffe9bb" opacity=".7"/><path d="M0 680 C250 570 396 760 660 622 C860 518 975 600 1200 504 L1200 900 L0 900Z" fill="#2c170e" opacity=".88"/><g transform="translate(150 210)"><rect x="0" y="130" width="440" height="340" rx="56" fill="#fff8e8" opacity=".88"/><path d="M75 205h290M75 265h230M75 325h260" stroke="#321c10" stroke-width="18" stroke-linecap="round" opacity=".22"/><g transform="translate(250 28)"><ellipse cx="120" cy="180" rx="145" ry="92" fill="#b96b2e"/><ellipse cx="120" cy="155" rx="145" ry="92" fill="#f0b66c"/><path d="M40 150c45-34 88-34 130 0M122 116c40 17 62 45 72 85M218 150c-38-32-80-34-126-4" stroke="#6b3515" stroke-width="15" fill="none" stroke-linecap="round" opacity=".35"/></g></g><g transform="translate(675 392)"><rect width="330" height="330" rx="70" fill="#f8e2bc" opacity=".32"/><circle cx="120" cy="120" r="78" fill="#fff8e8" opacity=".5"/><rect x="58" y="228" width="220" height="30" rx="15" fill="#fff8e8" opacity=".5"/></g><rect width="1200" height="900" filter="url(#grain)"/></svg>
