<svg xmlns="http://www.w3.org/2000/svg" viewBox="0 0 1200 900"><defs><linearGradient id="g" x1="0" y1="0" x2="1" y2="1"><stop stop-color="#f8fcff"/><stop offset=".5" stop-color="#cbf3e8"/><stop offset="1" stop-color="#78b9ff"/></linearGradient><filter id="grain"><feTurbulence baseFrequency=".8" numOctaves="3"/><feComponentTransfer><feFuncA type="table" tableValues="0 .12"/></feComponentTransfer></filter></defs><rect width="1200" height="900" fill="url(#g)"/><circle cx="250" cy="180" r="230" fill="#fff" opacity=".55"/><circle cx="1000" cy="670" r="300" fill="#fff" opacity=".36"/><g transform="translate(245 170)"><rect width="710" height="560" rx="66" fill="#fff" opacity=".82"/><rect x="70" y="80" width="260" height="32" rx="16" fill="#101b26" opacity=".12"/><rect x="70" y="135" width="480" height="24" rx="12" fill="#101b26" opacity=".08"/><rect x="70" y="175" width="410" height="24" rx="12" fill="#101b26" opacity=".08"/><g transform="translate(430 90)"><circle cx="95" cy="95" r="95" fill="#78b9ff" opacity=".85"/><rect x="78" y="40" width="34" height="110" rx="17" fill="#fff"/><rect x="40" y="78" width="110" height="34" rx="17" fill="#fff"/></g><rect x="70" y="285" width="170" height="150" rx="28" fill="#eff7ff"/><rect x="270" y="285" width="170" height="150" rx="28" fill="#eff7ff"/><rect x="470" y="285" width="170" height="150" rx="28" fill="#eff7ff"/></g><rect width="1200" height="900" filter="url(#grain)" opacity=".8"/></svg>
