<svg xmlns="http://www.w3.org/2000/svg" viewBox="0 0 1200 900"><defs><linearGradient id="g" x1="0" y1="0" x2="1" y2="1"><stop stop-color="#080b0f"/><stop offset=".5" stop-color="#141b25"/><stop offset="1" stop-color="#f2583e"/></linearGradient><filter id="grain"><feTurbulence baseFrequency=".85" numOctaves="3"/><feComponentTransfer><feFuncA type="table" tableValues="0 .18"/></feComponentTransfer></filter></defs><rect width="1200" height="900" fill="url(#g)"/><g opacity=".14" stroke="#fff" stroke-width="2"><path d="M0 700h1200M0 560h1200M0 420h1200M0 280h1200M150 0v900M350 0v900M550 0v900M750 0v900M950 0v900"/></g><g transform="translate(150 440)"><path d="M95 185 C140 60 260 0 520 0 c220 0 335 52 430 178 l95 30 c35 11 58 44 58 81v55H0v-50c0-47 39-88 95-109Z" fill="#e8edf4"/><path d="M240 70 h420 c108 0 188 40 245 108 H120 c31-63 72-93 120-108Z" fill="#29384a"/><circle cx="230" cy="350" r="105" fill="#050505"/><circle cx="230" cy="350" r="48" fill="#d9e4f1"/><circle cx="890" cy="350" r="105" fill="#050505"/><circle cx="890" cy="350" r="48" fill="#d9e4f1"/><path d="M680 190 h240" stroke="#f2583e" stroke-width="24" stroke-linecap="round"/><path d="M110 210 h220" stroke="#f2583e" stroke-width="20" stroke-linecap="round"/></g><circle cx="1000" cy="180" r="180" fill="#a4d4ff" opacity=".2"/><rect width="1200" height="900" filter="url(#grain)" opacity=".8"/></svg>
