<svg xmlns="http://www.w3.org/2000/svg" viewBox="0 0 1200 900"><defs><linearGradient id="sky" x1="0" y1="0" x2="1" y2="1"><stop stop-color="#f6f8ee"/><stop offset=".52" stop-color="#d9e9cc"/><stop offset="1" stop-color="#5da4a0"/></linearGradient><filter id="grain"><feTurbulence baseFrequency=".75" numOctaves="3"/><feComponentTransfer><feFuncA type="table" tableValues="0 .16"/></feComponentTransfer></filter></defs><rect width="1200" height="900" fill="url(#sky)"/><circle cx="1010" cy="145" r="105" fill="#fff4bf"/><path d="M0 610 C180 520 290 535 430 580 C630 645 740 500 915 540 C1040 568 1110 620 1200 585 V900 H0Z" fill="#28443d"/><g transform="translate(255 285)"><rect x="105" y="160" width="520" height="335" rx="24" fill="#fffdf3"/><path d="M75 160 h580 L365 0Z" fill="#365a52"/><rect x="280" y="55" width="170" height="105" fill="#fffdf3"/><circle cx="365" cy="107" r="35" fill="#5da4a0"/><rect x="165" y="240" width="90" height="110" rx="10" fill="#d9e9cc"/><rect x="315" y="240" width="90" height="110" rx="10" fill="#d9e9cc"/><rect x="465" y="240" width="90" height="110" rx="10" fill="#d9e9cc"/><rect x="320" y="390" width="95" height="105" rx="12" fill="#365a52"/></g><g opacity=".28" fill="#fff"><circle cx="150" cy="230" r="28"/><circle cx="220" cy="180" r="20"/><circle cx="970" cy="345" r="36"/><circle cx="1050" cy="390" r="23"/></g><rect width="1200" height="900" filter="url(#grain)" opacity=".8"/></svg>
