<svg xmlns="http://www.w3.org/2000/svg" viewBox="0 0 96 96" role="img" aria-labelledby="title desc">
  <title id="title">Tannenhof Mayer mark</title>
  <desc id="desc">A shield with Tannenhof Mayer initials.</desc>
  <rect width="96" height="96" fill="#0b1118"/>
  <path d="M48 11 78 22v23c0 18.5-10.4 31.5-30 40C28.4 76.5 18 63.5 18 45V22l30-11Z" fill="#f5f0e6"/>
  <path d="M48 18.5 70.5 27v18c0 14-7.6 24.4-22.5 31.4C33.1 69.4 25.5 59 25.5 45V27L48 18.5Z" fill="#0b1118"/>
  <path d="M31 33.5h34v6.2H51.6v28.8h-7.2V39.7H31v-6.2Z" fill="#f5f0e6"/>
  <path d="M35 50h26v5.6H51.6v12.9h-7.2V55.6H35V50Z" fill="#b98b25"/>
</svg>
