<svg xmlns="http://www.w3.org/2000/svg" width="1200" height="630" viewBox="0 0 1200 630">
  <rect width="1200" height="630" fill="#f5f0e6"/>
  <path d="M0 0h1200v630H0z" fill="none" stroke="#0b1118" stroke-width="20"/>
  <g opacity=".28" stroke="#0b1118" stroke-width="1">
    <path d="M0 105h1200M0 210h1200M0 315h1200M0 420h1200M0 525h1200"/>
    <path d="M150 0v630M300 0v630M450 0v630M600 0v630M750 0v630M900 0v630M1050 0v630"/>
  </g>
  <rect x="76" y="77" width="130" height="130" fill="#0b1118"/>
  <path d="M141 94 184 110v35c0 26-14.5 44-43 56-28.5-12-43-30-43-56v-35l43-16Z" fill="#f5f0e6"/>
  <path d="M116 126h50v10h-19v43h-12v-43h-19v-10Z" fill="#0b1118"/>
  <path d="M123 153h36v8h-12v18h-12v-18h-12v-8Z" fill="#b98b25"/>
  <text x="76" y="314" font-family="Georgia, serif" font-size="86" font-weight="700" fill="#0b1118" letter-spacing="-4">Tannenhof Mayer</text>
  <text x="80" y="381" font-family="Arial, sans-serif" font-size="24" font-weight="800" fill="#6a6257" letter-spacing="7">INSTITUTIONAL HOUSE · APGO.INK</text>
  <text x="80" y="478" font-family="Georgia, serif" font-size="56" font-weight="700" fill="#0b1118" letter-spacing="-2">A house built to compound trust.</text>
  <rect x="80" y="532" width="280" height="8" fill="#b98b25"/>
</svg>
