<svg xmlns="http://www.w3.org/2000/svg" viewBox="0 0 1000 760"><defs><linearGradient id="bg" x1="0" y1="0" x2="1" y2="1"><stop stop-color="#161513"/><stop offset="1" stop-color="#050505"/></linearGradient><linearGradient id="up" x1="0" y1="1" x2="1" y2="0"><stop stop-color="#84D99B" stop-opacity=".15"/><stop offset="1" stop-color="#84D99B" stop-opacity=".75"/></linearGradient><filter id="blur"><feGaussianBlur stdDeviation="18"/></filter></defs><rect width="1000" height="760" rx="42" fill="url(#bg)"/><circle cx="820" cy="120" r="130" fill="#84D99B" opacity=".12" filter="url(#blur)"/><circle cx="180" cy="610" r="140" fill="#C7A96B" opacity=".10" filter="url(#blur)"/><g opacity=".16" stroke="#F5F1E8"><path d="M70 160h860M70 280h860M70 400h860M70 520h860M70 640h860"/><path d="M180 90v590M340 90v590M500 90v590M660 90v590M820 90v590"/></g><text x="78" y="105" fill="#F5F1E8" font-family="Georgia,serif" font-size="58" font-weight="700">Capital is social intelligence, disciplined.</text><text x="82" y="145" fill="#9C9489" font-family="Arial,sans-serif" font-size="17" letter-spacing="4">TANNENHOF MAYER / OPERATING MAP</text><path d="M80 560 C 180 520,205 570,300 470 S 455 380,540 410 690 210,785 245 920 140" fill="none" stroke="url(#up)" stroke-width="10" stroke-linecap="round" filter="drop-shadow(0 0 16px rgba(132,217,155,.45))"/><path d="M80 450 C 170 390,235 470,325 410 S 480 520,565 370 700 350,790 405 920 310" fill="none" stroke="#E06A5F" stroke-opacity=".52" stroke-width="4" stroke-linecap="round" filter="drop-shadow(0 0 10px rgba(224,106,95,.35))"/><g fill="#F5F1E8"><circle cx="300" cy="470" r="7"/><circle cx="540" cy="410" r="7"/><circle cx="690" cy="210" r="7"/><circle cx="920" cy="140" r="7"/></g><g><rect x="78" y="610" width="230" height="74" rx="18" fill="rgba(245,241,232,.08)" stroke="rgba(245,241,232,.18)"/><text x="100" y="642" fill="#F5F1E8" font-family="Arial,sans-serif" font-size="16" font-weight="700">Research rooms</text><text x="100" y="665" fill="#9C9489" font-family="Arial,sans-serif" font-size="13">Community intelligence</text><rect x="338" y="610" width="230" height="74" rx="18" fill="rgba(245,241,232,.08)" stroke="rgba(245,241,232,.18)"/><text x="360" y="642" fill="#F5F1E8" font-family="Arial,sans-serif" font-size="16" font-weight="700">Risk protocol</text><text x="360" y="665" fill="#9C9489" font-family="Arial,sans-serif" font-size="13">Drawdown discipline</text><rect x="598" y="610" width="322" height="74" rx="18" fill="rgba(132,217,155,.10)" stroke="rgba(132,217,155,.36)"/><text x="620" y="642" fill="#F5F1E8" font-family="Arial,sans-serif" font-size="16" font-weight="700">Ownership path</text><text x="620" y="665" fill="#9C9489" font-family="Arial,sans-serif" font-size="13">Contribution → trust → stakeholding</text></g></svg>
