<svg xmlns="http://www.w3.org/2000/svg" viewBox="0 0 900 560"><defs><linearGradient id="g" x1="0" y1="0" x2="1" y2="0"><stop stop-color="#84D99B" stop-opacity=".05"/><stop offset="1" stop-color="#84D99B" stop-opacity=".35"/></linearGradient></defs><rect width="900" height="560" fill="#080808"/><g opacity=".16" stroke="#F5F1E8"><path d="M0 80h900M0 160h900M0 240h900M0 320h900M0 400h900M0 480h900"/><path d="M90 0v560M180 0v560M270 0v560M360 0v560M450 0v560M540 0v560M630 0v560M720 0v560M810 0v560"/></g><path d="M0 380 C 90 350,130 420,220 330 S 370 260,460 290 620 135,730 170 830 78,900 95" fill="none" stroke="url(#g)" stroke-width="8" stroke-linecap="round" filter="drop-shadow(0 0 12px rgba(132,217,155,.6))"/><path d="M0 300 C 120 250,185 310,270 245 S 410 355,520 230 675 210,780 250 900 190" fill="none" stroke="#E06A5F" stroke-opacity=".26" stroke-width="3" stroke-linecap="round" filter="drop-shadow(0 0 10px rgba(224,106,95,.45))"/></svg>
