<svg width="900" height="620" viewBox="0 0 900 620" fill="none" xmlns="http://www.w3.org/2000/svg">
  <rect width="900" height="620" fill="#0D0D0C"/>
  <rect x="40" y="40" width="820" height="540" fill="#151512" stroke="#F2EFE6" stroke-opacity="0.18"/>
  <g opacity="0.52">
    <path d="M100 470V175" stroke="#F2EFE6" stroke-opacity="0.35"/>
    <path d="M100 470H792" stroke="#F2EFE6" stroke-opacity="0.35"/>
    <path d="M100 410H792M100 350H792M100 290H792M100 230H792" stroke="#F2EFE6" stroke-opacity="0.09"/>
    <path d="M200 175V470M300 175V470M400 175V470M500 175V470M600 175V470M700 175V470" stroke="#F2EFE6" stroke-opacity="0.07"/>
  </g>
  <path d="M100 421C145 405 174 367 217 378C253 387 268 420 306 414C356 406 378 302 430 292C475 283 496 356 544 343C594 330 611 233 662 228C705 224 724 286 762 273C775 269 785 259 792 250" stroke="#B8C8B0" stroke-width="4" stroke-linecap="round"/>
  <path d="M100 444C151 432 182 450 222 430C274 404 292 436 334 429C382 421 404 460 450 449C508 435 528 391 577 405C626 419 648 448 694 438C737 429 754 406 792 412" stroke="#C2756B" stroke-width="3" stroke-linecap="round" opacity="0.82"/>
  <circle cx="430" cy="292" r="7" fill="#F2EFE6"/>
  <circle cx="662" cy="228" r="7" fill="#F2EFE6"/>
  <rect x="100" y="92" width="212" height="56" fill="#0D0D0C" stroke="#F2EFE6" stroke-opacity="0.18"/>
  <text x="118" y="126" fill="#F2EFE6" font-family="Georgia, serif" font-size="21">Research terminal</text>
  <text x="554" y="127" fill="#BFB9A7" font-family="Arial, sans-serif" font-size="14" letter-spacing="2.5">MONTHLY COMMITTEE REVIEW</text>
  <g opacity="0.35">
    <rect x="585" y="182" width="134" height="34" stroke="#F2EFE6"/>
    <rect x="585" y="231" width="97" height="34" stroke="#F2EFE6"/>
    <rect x="585" y="280" width="158" height="34" stroke="#F2EFE6"/>
  </g>
  <path d="M103 516H250M103 539H182M300 516H460M300 539H415M520 516H745M520 539H678" stroke="#F2EFE6" stroke-opacity="0.2" stroke-width="6"/>
</svg>
