<svg width="1200" height="630" viewBox="0 0 1200 630" fill="none" xmlns="http://www.w3.org/2000/svg">
  <rect width="1200" height="630" fill="#F4EFE5"/>
  <defs>
    <pattern id="grid" width="24" height="24" patternUnits="userSpaceOnUse">
      <path d="M24 0H0V24" fill="none" stroke="#11110F" stroke-opacity="0.08"/>
    </pattern>
  </defs>
  <rect width="1200" height="630" fill="url(#grid)"/>
  <circle cx="1020" cy="184" r="220" fill="#B88A2A" opacity="0.10"/>
  <path d="M904 390C980 303 1125 342 1132 454C1138 548 1011 582 934 537C855 491 837 467 904 390Z" stroke="#11110F" stroke-opacity="0.12" stroke-width="2"/>
  <rect x="64" y="54" width="1072" height="522" stroke="#11110F" stroke-width="2"/>
  <rect x="88" y="78" width="120" height="120" fill="#11110F"/>
  <path d="M148 99L184 114V144C184 166 169 183 148 190C127 183 112 166 112 144V114L148 99Z" fill="#F4EFE5"/>
  <path d="M126 134H170" stroke="#11110F" stroke-width="7"/>
  <path d="M148 128V170" stroke="#11110F" stroke-width="7"/>
  <path d="M134 150H162" stroke="#B88A2A" stroke-width="5"/>
  <text x="242" y="128" fill="#11110F" font-family="Georgia, Times New Roman, serif" font-size="62" font-weight="700" letter-spacing="-4">Tannenhof Mayer</text>
  <text x="246" y="164" fill="#575249" font-family="Arial, sans-serif" font-size="17" font-weight="800" letter-spacing="5">INSTITUTIONAL HOUSE · APGO.INK</text>
  <text x="88" y="370" fill="#11110F" font-family="Georgia, Times New Roman, serif" font-size="92" font-weight="700" letter-spacing="-7">A house for capital, banking,</text>
  <text x="88" y="464" fill="#11110F" font-family="Georgia, Times New Roman, serif" font-size="92" font-weight="700" letter-spacing="-7">companies, and durable power.</text>
  <rect x="88" y="510" width="172" height="40" fill="#11110F"/>
  <text x="112" y="536" fill="#F4EFE5" font-family="Arial, sans-serif" font-size="12" font-weight="800" letter-spacing="2">POWER · DESIGN · TRUST</text>
  <circle cx="292" cy="530" r="7" fill="#B88A2A" stroke="#11110F" stroke-width="2"/>
</svg>
