<svg xmlns="http://www.w3.org/2000/svg" width="1200" height="630" viewBox="0 0 1200 630" fill="none">
  <rect width="1200" height="630" fill="#F3EFE6"/>
  <circle cx="980" cy="80" r="260" fill="#DCE8DC"/>
  <text x="58" y="236" font-family="Inter, Arial, sans-serif" font-size="124" font-weight="900" letter-spacing="-10" fill="#141411">Wylo</text>
  <text x="64" y="324" font-family="Inter, Arial, sans-serif" font-size="40" font-weight="750" letter-spacing="-1.8" fill="#141411">Websites and setup for young entrepreneurs.</text>
  <text x="66" y="382" font-family="Inter, Arial, sans-serif" font-size="25" font-weight="500" fill="#6f6a60">Clean websites, booking, payments, links, content, and launch support.</text>
  <g transform="translate(686 164) rotate(-10)">
    <rect x="0" y="44" width="330" height="210" rx="34" fill="#FAF7EF" stroke="#D9D1C4"/>
    <rect x="28" y="78" width="150" height="28" rx="14" fill="#153C2C"/>
    <rect x="28" y="124" width="220" height="12" rx="6" fill="#D4CDC0"/>
    <rect x="28" y="150" width="160" height="12" rx="6" fill="#D4CDC0"/>
    <rect x="224" y="98" width="76" height="112" rx="20" fill="#151515"/>
    <rect x="238" y="120" width="48" height="54" rx="10" fill="#F3EFE6"/>
    <rect x="-46" y="196" width="142" height="78" rx="24" fill="#FAF7EF" stroke="#D9D1C4"/>
    <rect x="-24" y="218" width="64" height="10" rx="5" fill="#153C2C" opacity="0.2"/>
    <rect x="-24" y="242" width="86" height="10" rx="5" fill="#D4CDC0"/>
    <rect x="222" y="-8" width="150" height="82" rx="26" fill="#153C2C"/>
    <text x="246" y="43" font-family="Inter, Arial, sans-serif" font-size="22" font-weight="800" fill="#F3EFE6">Ready</text>
  </g>
</svg>
