<svg xmlns="http://www.w3.org/2000/svg" viewBox="0 0 1600 1000" role="img" aria-labelledby="title desc">
<title id="title">Microstructure plate</title>
<desc id="desc">Abstract microstructure image in mineral tones.</desc>
<defs>
<linearGradient id="base" x1="0" x2="1" y1="0" y2="1"><stop offset="0" stop-color="#e8dbc7"/><stop offset=".52" stop-color="#9fb4ac"/><stop offset="1" stop-color="#2f3c31"/></linearGradient>
<filter id="rough"><feTurbulence type="fractalNoise" baseFrequency=".035" numOctaves="4"/><feDisplacementMap in="SourceGraphic" scale="32"/></filter>
<filter id="grain"><feTurbulence type="fractalNoise" baseFrequency=".8" numOctaves="3"/><feColorMatrix type="saturate" values="0"/><feComponentTransfer><feFuncA type="table" tableValues="0 .14"/></feComponentTransfer></filter>
</defs>
<rect width="1600" height="1000" fill="url(#base)"/>
<g filter="url(#rough)" opacity=".76">
<path d="M-60 230C190 92 413 206 628 151c268-68 445-200 699-89 144 63 216 169 330 176v813H-60z" fill="#f0e4cc"/>
<path d="M-50 740c260-144 432-75 629-173 221-111 310-294 556-279 210 13 336 162 524 123v649H-50z" fill="#b85d3e" opacity=".52"/>
<path d="M-80 862c260-53 435-16 657-79 237-68 312-196 547-170 197 22 337 139 540 96v355H-80z" fill="#172017" opacity=".78"/>
</g>
<g fill="none" stroke="#11150f" stroke-opacity=".23" stroke-width="3">
<path d="M100 150c170 85 240 20 350 110s230 44 410 9 255 92 395 90 200-62 315 22"/>
<path d="M30 438c210-10 275 73 450 37s252-166 440-100 295 41 423-28 176-23 265 26"/>
<path d="M104 666c198 26 286 122 470 25s268-156 468-88 290 91 506 3"/>
</g>
<rect width="1600" height="1000" filter="url(#grain)"/>
</svg>
