<svg width="1600" height="1100" viewBox="0 0 1600 1100" fill="none" xmlns="http://www.w3.org/2000/svg" role="img" aria-label="Abstract research lattice">
  <defs>
    <linearGradient id="g" x1="0" y1="0" x2="1600" y2="1100" gradientUnits="userSpaceOnUse">
      <stop stop-color="#F4EFE4"/>
      <stop offset="0.45" stop-color="#D7E4DE"/>
      <stop offset="1" stop-color="#111827"/>
    </linearGradient>
    <radialGradient id="r1" cx="0" cy="0" r="1" gradientUnits="userSpaceOnUse" gradientTransform="translate(1120 360) rotate(133.2) scale(650 560)">
      <stop stop-color="#A7F3D0" stop-opacity="0.74"/>
      <stop offset="0.42" stop-color="#93C5FD" stop-opacity="0.26"/>
      <stop offset="1" stop-color="#020617" stop-opacity="0"/>
    </radialGradient>
    <filter id="noise" x="0" y="0" width="100%" height="100%">
      <feTurbulence type="fractalNoise" baseFrequency="0.85" numOctaves="3" stitchTiles="stitch"/>
      <feColorMatrix type="saturate" values="0"/>
      <feComponentTransfer>
        <feFuncA type="table" tableValues="0 0.045"/>
      </feComponentTransfer>
    </filter>
    <clipPath id="clip"><rect width="1600" height="1100" rx="44"/></clipPath>
  </defs>
  <g clip-path="url(#clip)">
    <rect width="1600" height="1100" fill="url(#g)"/>
    <rect width="1600" height="1100" fill="url(#r1)"/>
    <path d="M-80 764C150 596 308 611 521 676C732 740 895 735 1118 536C1268 402 1436 363 1680 392" stroke="#F8FAFC" stroke-opacity="0.22" stroke-width="2"/>
    <path d="M-120 862C108 720 280 704 471 766C716 845 894 820 1127 650C1318 511 1465 485 1720 545" stroke="#0F172A" stroke-opacity="0.2" stroke-width="1.5"/>
    <path d="M-90 392C83 465 265 465 456 378C658 287 790 232 1031 265C1269 298 1399 221 1688 88" stroke="#020617" stroke-opacity="0.14" stroke-width="1.5"/>
    <g stroke="#0F172A" stroke-opacity="0.18" stroke-width="1">
      <path d="M130 197L342 157L558 254L712 188L912 272L1110 132L1348 214"/>
      <path d="M184 662L407 522L615 585L836 465L1047 562L1275 442L1469 522"/>
      <path d="M242 904L471 794L692 861L934 706L1171 824L1392 691"/>
      <path d="M342 157L407 522L471 794"/>
      <path d="M558 254L615 585L692 861"/>
      <path d="M912 272L836 465L934 706"/>
      <path d="M1110 132L1047 562L1171 824"/>
      <path d="M1348 214L1275 442L1392 691"/>
    </g>
    <g fill="#020617" fill-opacity="0.42">
      <circle cx="130" cy="197" r="5"/><circle cx="342" cy="157" r="6"/><circle cx="558" cy="254" r="4"/><circle cx="712" cy="188" r="5"/><circle cx="912" cy="272" r="6"/><circle cx="1110" cy="132" r="5"/><circle cx="1348" cy="214" r="6"/>
      <circle cx="184" cy="662" r="6"/><circle cx="407" cy="522" r="5"/><circle cx="615" cy="585" r="6"/><circle cx="836" cy="465" r="5"/><circle cx="1047" cy="562" r="7"/><circle cx="1275" cy="442" r="5"/><circle cx="1469" cy="522" r="6"/>
      <circle cx="242" cy="904" r="5"/><circle cx="471" cy="794" r="6"/><circle cx="692" cy="861" r="5"/><circle cx="934" cy="706" r="7"/><circle cx="1171" cy="824" r="5"/><circle cx="1392" cy="691" r="6"/>
    </g>
    <g fill="#F8FAFC" fill-opacity="0.82">
      <circle cx="1051" cy="308" r="2"/><circle cx="1181" cy="335" r="2"/><circle cx="1240" cy="266" r="2"/><circle cx="1298" cy="317" r="2"/><circle cx="1138" cy="242" r="2"/><circle cx="1378" cy="398" r="2"/>
    </g>
    <rect width="1600" height="1100" filter="url(#noise)" opacity="0.74"/>
  </g>
</svg>
