<svg xmlns="http://www.w3.org/2000/svg" viewBox="0 0 1600 1000" role="img" aria-labelledby="title desc">
<title id="title">Field correspondence archive</title>
<desc id="desc">Abstract archive sheets and a landscape line.</desc>
<defs>
<linearGradient id="bg" x1="0" x2="1" y1="0" y2="1"><stop offset="0" stop-color="#efe2ca"/><stop offset=".48" stop-color="#ccd8d1"/><stop offset="1" stop-color="#334235"/></linearGradient>
<filter id="grain"><feTurbulence type="fractalNoise" baseFrequency=".85" numOctaves="3"/><feColorMatrix type="saturate" values="0"/><feComponentTransfer><feFuncA type="table" tableValues="0 .12"/></feComponentTransfer></filter>
</defs>
<rect width="1600" height="1000" fill="url(#bg)"/>
<path d="M0 716c225-100 396-100 548-28 189 89 323 71 502-20 195-99 352-68 550 52v280H0z" fill="#1b241b" opacity=".84"/>
<g transform="translate(252 156) rotate(-4)">
<rect width="410" height="580" rx="12" fill="#f8efe0" opacity=".95"/><rect x="48" y="62" width="218" height="9" rx="4.5" fill="#11150f" opacity=".44"/><rect x="48" y="112" width="315" height="6" rx="3" fill="#11150f" opacity=".22"/><rect x="48" y="142" width="270" height="6" rx="3" fill="#11150f" opacity=".2"/><rect x="48" y="172" width="310" height="6" rx="3" fill="#11150f" opacity=".18"/><path d="M48 276h315M48 328h300M48 380h270" stroke="#b85d3e" stroke-width="8" stroke-linecap="round" opacity=".5"/></g>
<g transform="translate(742 210) rotate(6)" opacity=".86"><rect width="392" height="492" rx="12" fill="#e7d9bf"/><path d="M58 94h250M58 132h210M58 170h285M58 292h240M58 330h190" stroke="#11150f" stroke-opacity=".28" stroke-width="9" stroke-linecap="round"/></g>
<rect width="1600" height="1000" filter="url(#grain)"/>
</svg>
