<svg xmlns="http://www.w3.org/2000/svg" viewBox="0 0 920 520" role="img" aria-labelledby="title desc">
  <title id="title">Abstract field network map</title>
  <desc id="desc">A restrained abstract map showing research corridors and observation nodes.</desc>
  <rect width="920" height="520" fill="#171916"/>
  <g fill="none" stroke="#f5f2ea" stroke-opacity=".14">
    <path d="M80 90h760M80 180h760M80 270h760M80 360h760M80 450h760"/>
    <path d="M120 50v420M260 50v420M400 50v420M540 50v420M680 50v420M820 50v420"/>
  </g>
  <path d="M110 382C205 286 259 328 340 228s158-96 244-56 140 18 225-72" stroke="#f5f2ea" stroke-opacity=".52" stroke-width="2" fill="none"/>
  <path d="M142 188c112 32 189 16 278 78s172 76 316 10" stroke="#7c1f1f" stroke-opacity=".9" stroke-width="2" fill="none"/>
  <path d="M190 415c92-40 137-79 196-96 84-24 161-5 244-75 52-43 88-95 155-111" stroke="#d8cfc0" stroke-opacity=".52" stroke-width="2" fill="none"/>
  <g fill="#f5f2ea">
    <circle cx="110" cy="382" r="5"/><circle cx="340" cy="228" r="5"/><circle cx="584" cy="172" r="5"/><circle cx="809" cy="100" r="5"/>
    <circle cx="142" cy="188" r="5"/><circle cx="420" cy="266" r="5"/><circle cx="736" cy="276" r="5"/>
    <circle cx="190" cy="415" r="5"/><circle cx="386" cy="319" r="5"/><circle cx="630" cy="244" r="5"/><circle cx="785" cy="133" r="5"/>
  </g>
  <g fill="#7c1f1f">
    <circle cx="340" cy="228" r="10" opacity=".25"/><circle cx="736" cy="276" r="10" opacity=".25"/><circle cx="785" cy="133" r="10" opacity=".25"/>
  </g>
  <g font-family="Arial, sans-serif" font-size="12" letter-spacing="2" fill="#f5f2ea" fill-opacity=".56">
    <text x="80" y="70">MERIDIAN FIELD NETWORK</text>
    <text x="80" y="486">ABSTRACTED OBSERVATION CORRIDORS · NOT A GEOGRAPHIC MAP</text>
  </g>
</svg>
