<svg xmlns="http://www.w3.org/2000/svg" viewBox="0 0 800 600"><rect width="800" height="600" fill="#11130f"/><g opacity=".16" stroke="#f5efe5"><path d="M80 500C230 260 390 210 720 250" fill="none"/><path d="M100 90C260 160 330 300 330 560" fill="none"/><path d="M0 430c170-25 285-90 390-205s225-130 410-100" fill="none"/><circle cx="505" cy="258" r="145" fill="none"/><circle cx="505" cy="258" r="225" fill="none"/></g><g fill="#f5efe5"><circle cx="140" cy="430" r="4"/><circle cx="330" cy="247" r="4"/><circle cx="505" cy="258" r="5"/><circle cx="642" cy="150" r="4"/><circle cx="710" cy="250" r="4"/></g><path d="M90 510 330 247 505 258 642 150 710 250" fill="none" stroke="#8b1d1d" stroke-width="4"/><g font-family="Arial" font-size="14" fill="#bfb8aa" letter-spacing="3"><text x="56" y="74">SIGNAL MAP</text><text x="56" y="552">MERIDIAN / PUBLIC EDITION</text></g></svg>