<svg xmlns="http://www.w3.org/2000/svg" viewBox="0 0 960 680" role="img" aria-label="Abstract research system diagram">
  <defs>
    <linearGradient id="g" x1="0" y1="0" x2="1" y2="1"><stop offset="0" stop-color="#232520"/><stop offset="1" stop-color="#11120f"/></linearGradient>
    <filter id="s" x="-20%" y="-20%" width="140%" height="140%"><feDropShadow dx="0" dy="24" stdDeviation="32" flood-color="#000" flood-opacity=".22"/></filter>
  </defs>
  <rect x="0" y="0" width="960" height="680" rx="2" fill="url(#g)" filter="url(#s)"/>
  <g opacity=".24" stroke="#ebe7dd" stroke-width="1">
    <path d="M120 96h720M120 164h720M120 232h720M120 300h720M120 368h720M120 436h720M120 504h720M120 572h720"/>
    <path d="M120 96v476M210 96v476M300 96v476M390 96v476M480 96v476M570 96v476M660 96v476M750 96v476M840 96v476"/>
  </g>
  <g fill="none" stroke="#e9e5dc" stroke-width="1.5" opacity=".62">
    <circle cx="512" cy="336" r="190"/><circle cx="512" cy="336" r="112"/><circle cx="512" cy="336" r="48"/>
    <path d="M214 444c84-132 178-194 300-181 86 9 151 63 232 28"/>
    <path d="M162 264c86 30 169 25 249-12 118-55 201-41 312 59" opacity=".48"/>
  </g>
  <g font-family="Arial, sans-serif" font-size="20" fill="#e9e5dc">
    <text x="64" y="70" letter-spacing="8" font-size="13" opacity=".66">FEATURED DOSSIER</text>
    <text x="64" y="144" font-family="Georgia, serif" font-size="50">Adaptive infrastructure</text>
    <text x="64" y="200" font-family="Georgia, serif" font-size="50">under compounding risk</text>
    <text x="64" y="286" fill="#b9b1a4">Evidence grade</text><text x="240" y="286">Moderate–high</text>
    <text x="64" y="326" fill="#b9b1a4">Review status</text><text x="240" y="326">External specialist review</text>
    <text x="64" y="366" fill="#b9b1a4">Publication</text><text x="240" y="366">Public edition · May 2026</text>
  </g>
  <g fill="#8d211f"><circle cx="512" cy="336" r="5"/><circle cx="655" cy="274" r="4"/><circle cx="397" cy="257" r="4"/></g>
</svg>
