<svg width="900" height="1100" viewBox="0 0 900 1100" fill="none" xmlns="http://www.w3.org/2000/svg" role="img" aria-label="Human study line drawing">
  <rect width="900" height="1100" fill="#F8F5EF"/>
  <g stroke="#15130F" stroke-width="3" stroke-linecap="round" stroke-linejoin="round">
    <path d="M452 223C498 223 535 260 535 306C535 352 498 389 452 389C406 389 369 352 369 306C369 260 406 223 452 223Z"/>
    <path d="M452 392V693"/>
    <path d="M330 504C368 472 408 455 452 455C496 455 535 473 574 505"/>
    <path d="M452 693C398 744 361 808 342 888"/>
    <path d="M452 693C507 742 543 806 563 888"/>
    <path d="M331 505C287 557 261 619 249 690"/>
    <path d="M574 505C619 558 647 620 659 692"/>
    <path d="M214 900C236 821 253 749 249 690"/>
    <path d="M689 902C667 822 650 750 659 692"/>
    <path d="M302 900C312 864 324 846 342 888"/>
    <path d="M604 902C593 865 581 846 563 888"/>
  </g>
  <g stroke="#716A5B" stroke-width="1.4" opacity=".4">
    <circle cx="452" cy="554" r="305"/>
    <circle cx="452" cy="554" r="188"/>
    <path d="M147 554H757M452 249V859"/>
  </g>
  <text x="72" y="92" font-family="Georgia,serif" font-size="30" letter-spacing="6" fill="#15130F">HUMAN SCALE</text>
  <text x="72" y="1010" font-family="Arial,sans-serif" font-size="17" letter-spacing="3" fill="#5E584C">INQUIRY SERVES LIFE — NOT DISPLAY</text>
</svg>
