<svg width="980" height="680" viewBox="0 0 980 680" fill="none" xmlns="http://www.w3.org/2000/svg" role="img" aria-label="Knowledge orbit diagram">
  <defs>
    <radialGradient id="a" cx="0" cy="0" r="1" gradientUnits="userSpaceOnUse" gradientTransform="translate(493 338) rotate(90) scale(315 440)">
      <stop stop-color="#F8FAFC" stop-opacity=".95"/>
      <stop offset=".52" stop-color="#94A3B8" stop-opacity=".19"/>
      <stop offset="1" stop-color="#020617" stop-opacity="0"/>
    </radialGradient>
    <linearGradient id="b" x1="206" y1="104" x2="778" y2="582" gradientUnits="userSpaceOnUse">
      <stop stop-color="#CFFAFE" stop-opacity=".9"/>
      <stop offset=".5" stop-color="#FDE68A" stop-opacity=".55"/>
      <stop offset="1" stop-color="#FDA4AF" stop-opacity=".72"/>
    </linearGradient>
  </defs>
  <rect width="980" height="680" rx="36" fill="#07101D"/>
  <rect x="1" y="1" width="978" height="678" rx="35" stroke="#E2E8F0" stroke-opacity=".08"/>
  <circle cx="490" cy="340" r="310" fill="url(#a)"/>
  <g stroke="#F8FAFC" stroke-opacity=".14">
    <ellipse cx="490" cy="340" rx="362" ry="132" transform="rotate(-10 490 340)"/>
    <ellipse cx="490" cy="340" rx="362" ry="132" transform="rotate(30 490 340)"/>
    <ellipse cx="490" cy="340" rx="362" ry="132" transform="rotate(70 490 340)"/>
    <ellipse cx="490" cy="340" rx="362" ry="132" transform="rotate(110 490 340)"/>
    <circle cx="490" cy="340" r="216"/>
    <circle cx="490" cy="340" r="84"/>
  </g>
  <path d="M187 394C267 250 366 184 484 193C650 206 704 350 794 271" stroke="url(#b)" stroke-width="3" stroke-linecap="round"/>
  <path d="M242 193C327 325 429 392 548 394C645 396 714 360 796 474" stroke="#A7F3D0" stroke-opacity=".58" stroke-width="2.4" stroke-linecap="round"/>
  <g fill="#F8FAFC">
    <circle cx="187" cy="394" r="6"/><circle cx="242" cy="193" r="5"/><circle cx="484" cy="193" r="7"/><circle cx="548" cy="394" r="5"/><circle cx="794" cy="271" r="7"/><circle cx="796" cy="474" r="5"/>
  </g>
  <g font-family="ui-sans-serif, system-ui, -apple-system, BlinkMacSystemFont, Segoe UI, sans-serif" font-size="20" letter-spacing="2" fill="#E2E8F0">
    <text x="397" y="347">RESEARCH CORE</text>
    <text x="156" y="430" fill-opacity=".68">PAPERS</text>
    <text x="203" y="171" fill-opacity=".68">THEOREMS</text>
    <text x="760" y="248" fill-opacity=".68">INVENTIONS</text>
    <text x="755" y="513" fill-opacity=".68">NEWS</text>
  </g>
</svg>
