<svg xmlns="http://www.w3.org/2000/svg" width="1200" height="630" viewBox="0 0 1200 630">
  <defs>
    <linearGradient id="g" x1="0" x2="1" y1="0" y2="1">
      <stop offset="0" stop-color="#f5f2ea"/>
      <stop offset="1" stop-color="#e5ddcd"/>
    </linearGradient>
  </defs>
  <rect width="1200" height="630" fill="url(#g)"/>
  <path d="M95 104h1010M95 526h1010M240 80v470M600 80v470M960 80v470" stroke="#171717" stroke-opacity=".14"/>
  <rect x="95" y="104" width="1010" height="422" fill="none" stroke="#171717" stroke-opacity=".28"/>
  <g transform="translate(120 130)">
    <rect width="78" height="78" fill="#171916"/>
    <path d="M16 58h46M25 58c0-23 6.7-39 14-39s14 16 14 39M18 39h42M39 13v50" fill="none" stroke="#f5f2ea" stroke-width="3"/>
    <path d="M39 13v50" stroke="#7c1f1f" stroke-width="3"/>
  </g>
  <text x="120" y="285" font-family="Georgia, 'Times New Roman', serif" font-size="82" fill="#171717" letter-spacing="-4">Meridian Research</text>
  <text x="120" y="356" font-family="Arial, sans-serif" font-size="25" fill="#4c4840" letter-spacing="2">INDEPENDENT SCIENCE, POLICY &amp; SYSTEMS INTELLIGENCE</text>
  <text x="120" y="455" font-family="Arial, sans-serif" font-size="22" fill="#6d675d">Calm editorial design for serious research publishing.</text>
  <circle cx="965" cy="242" r="107" fill="none" stroke="#171717" stroke-opacity=".20" stroke-width="2"/>
  <ellipse cx="965" cy="242" rx="134" ry="58" fill="none" stroke="#7c1f1f" stroke-opacity=".55" stroke-width="2" transform="rotate(-24 965 242)"/>
  <ellipse cx="965" cy="242" rx="134" ry="58" fill="none" stroke="#171717" stroke-opacity=".20" stroke-width="2" transform="rotate(25 965 242)"/>
</svg>
