<svg width="900" height="640" viewBox="0 0 900 640" fill="none" xmlns="http://www.w3.org/2000/svg" role="img" aria-label="Abstract academic paper stack">
  <defs>
    <linearGradient id="paper" x1="186" y1="61" x2="706" y2="576" gradientUnits="userSpaceOnUse">
      <stop stop-color="#FFFFF8"/>
      <stop offset="1" stop-color="#E7ECE5"/>
    </linearGradient>
    <filter id="shadow" x="94" y="24" width="720" height="610" filterUnits="userSpaceOnUse" color-interpolation-filters="sRGB">
      <feDropShadow dx="0" dy="28" stdDeviation="30" flood-color="#020617" flood-opacity=".28"/>
    </filter>
  </defs>
  <rect width="900" height="640" rx="40" fill="#ECE7DA"/>
  <g filter="url(#shadow)">
    <rect x="181" y="92" width="532" height="418" rx="8" transform="rotate(4 181 92)" fill="#DDE5DB"/>
    <rect x="151" y="76" width="532" height="418" rx="8" transform="rotate(-4 151 76)" fill="#F6F3E9"/>
    <rect x="197" y="61" width="532" height="418" rx="8" transform="rotate(1.6 197 61)" fill="url(#paper)"/>
  </g>
  <g transform="translate(242 126) rotate(1.6)">
    <rect width="94" height="10" rx="5" fill="#0F172A" fill-opacity=".88"/>
    <rect y="34" width="332" height="14" rx="7" fill="#0F172A" fill-opacity=".83"/>
    <rect y="61" width="234" height="14" rx="7" fill="#0F172A" fill-opacity=".53"/>
    <rect y="108" width="410" height="7" rx="3.5" fill="#0F172A" fill-opacity=".33"/>
    <rect y="128" width="388" height="7" rx="3.5" fill="#0F172A" fill-opacity=".24"/>
    <rect y="148" width="424" height="7" rx="3.5" fill="#0F172A" fill-opacity=".24"/>
    <rect y="168" width="354" height="7" rx="3.5" fill="#0F172A" fill-opacity=".24"/>
    <rect y="210" width="178" height="104" rx="16" fill="#0F172A" fill-opacity=".08"/>
    <g stroke="#0F172A" stroke-opacity=".32" stroke-width="2">
      <path d="M22 281C57 224 89 249 124 218C142 203 155 200 170 207"/>
      <path d="M28 288L151 288"/>
      <path d="M31 296L77 296"/>
    </g>
    <rect x="217" y="214" width="214" height="8" rx="4" fill="#0F172A" fill-opacity=".25"/>
    <rect x="217" y="238" width="185" height="8" rx="4" fill="#0F172A" fill-opacity=".18"/>
    <rect x="217" y="262" width="226" height="8" rx="4" fill="#0F172A" fill-opacity=".18"/>
    <rect x="217" y="286" width="152" height="8" rx="4" fill="#0F172A" fill-opacity=".18"/>
  </g>
</svg>
