<svg xmlns="http://www.w3.org/2000/svg" viewBox="0 0 900 500"><rect width="900" height="500" fill="#fbf8f0"/><g stroke="#d4cbbd"><path d="M80 420h760M80 320h760M80 220h760M80 120h760M160 80v360M340 80v360M520 80v360M700 80v360"/></g><path d="M120 390c120-70 180-120 260-118 95 2 130-130 220-150 75-17 125 26 190-20" fill="none" stroke="#8b1d1d" stroke-width="5"/><path d="M120 410c120-20 190-35 280-58 140-36 185-54 390-70" fill="none" stroke="#183149" stroke-width="3" opacity=".7"/><g fill="#151515" font-family="Arial" font-size="18"><text x="90" y="55">Response capacity framework</text><text x="96" y="465">Budget authority</text><text x="310" y="465">Operational redundancy</text><text x="575" y="465">Procurement speed</text></g></svg>