<svg xmlns="http://www.w3.org/2000/svg" viewBox="0 0 1000 620"><rect width="1000" height="620" fill="#fbf8f0"/><g stroke="#d4cbbd" stroke-width="1"><path d="M80 80h840M80 220h840M80 360h840M80 500h840M180 60v500M380 60v500M580 60v500M780 60v500"/></g><g font-family="Arial" font-size="18" fill="#6d685e"><text x="92" y="48">LOW</text><text x="830" y="48">HIGH CONFIDENCE</text><text x="24" y="100" transform="rotate(-90 24 100)">OBSERVED</text><text x="24" y="520" transform="rotate(-90 24 520)">MODELLED</text></g><g fill="#8b1d1d"><circle cx="235" cy="415" r="8"/><circle cx="430" cy="288" r="8"/><circle cx="610" cy="192" r="8"/><circle cx="760" cy="260" r="8"/><circle cx="690" cy="430" r="8"/></g><path d="M235 415 430 288 610 192 760 260 690 430" fill="none" stroke="#183149" stroke-width="3"/><g font-family="Georgia" font-size="26" fill="#151515"><text x="96" y="592">Four desks · forty-two signals · visible uncertainty</text></g></svg>