<svg width="340" height="340" viewBox="0 0 340 340" fill="none" xmlns="http://www.w3.org/2000/svg" role="img" aria-label="Research specimen seal">
  <circle cx="170" cy="170" r="154" fill="#F7F3E9" stroke="#111" stroke-width="2"/>
  <circle cx="170" cy="170" r="117" stroke="#111" stroke-width="1.4" opacity=".45"/>
  <path d="M172 259C162 210 160 160 168 112C173 83 181 59 194 37" stroke="#111" stroke-width="3" stroke-linecap="round"/>
  <path d="M167 170C139 151 119 123 111 90C147 92 172 112 186 151" fill="#C5D6B4" stroke="#111" stroke-width="2"/>
  <path d="M171 210C204 194 229 166 239 129C198 129 168 151 152 192" fill="#D5C279" stroke="#111" stroke-width="2"/>
  <path d="M168 128C143 111 127 88 121 62" stroke="#111" stroke-width="1.5" opacity=".65"/>
  <path d="M174 207C202 191 219 169 226 142" stroke="#111" stroke-width="1.5" opacity=".65"/>
  <text x="170" y="306" text-anchor="middle" font-family="Arial,sans-serif" font-size="13" letter-spacing="4" fill="#111">RESEARCH INDEX</text>
  <text x="170" y="32" text-anchor="middle" font-family="Arial,sans-serif" font-size="12" letter-spacing="4" fill="#111">FIELD NOTE</text>
</svg>
